<svg xmlns="http://www.w3.org/2000/svg" viewBox="0 0 900 232" width="900" height="232" font-family="ui-monospace, SFMono-Regular, Menlo, Consolas, monospace">
  <defs>
    <marker id="arrow" viewBox="0 0 10 10" refX="8" refY="5" markerWidth="7" markerHeight="7" orient="auto">
      <path d="M0,0 L10,5 L0,10 z" fill="#f5a623"/>
    </marker>
  </defs>

  <!-- panel -->
  <rect x="0.5" y="0.5" width="899" height="231" rx="16" fill="#121212" stroke="#2a2a26"/>

  <!-- box 1: your repo -->
  <rect x="14" y="26" width="188" height="150" rx="10" fill="#1b1a15" stroke="#3d3b34"/>
  <text x="108" y="54" text-anchor="middle" fill="#f5a623" font-size="13" font-weight="700">your repo</text>
  <line x1="64" y1="62" x2="152" y2="62" stroke="#a8762a" stroke-width="1"/>
  <text x="108" y="86" text-anchor="middle" fill="#8f8d84" font-size="10.5">typed Markdown</text>
  <text x="108" y="106" text-anchor="middle" fill="#d6d4cc" font-size="10.5">decisions · requirements</text>
  <text x="108" y="124" text-anchor="middle" fill="#d6d4cc" font-size="10.5">designs · roadmaps</text>
  <text x="108" y="142" text-anchor="middle" fill="#d6d4cc" font-size="10.5">prompts</text>

  <!-- box 2: rac engine -->
  <rect x="242" y="26" width="188" height="150" rx="10" fill="#1b1a15" stroke="#3d3b34"/>
  <text x="336" y="54" text-anchor="middle" fill="#f5a623" font-size="13" font-weight="700">rac engine</text>
  <line x1="292" y1="62" x2="380" y2="62" stroke="#a8762a" stroke-width="1"/>
  <text x="336" y="86" text-anchor="middle" fill="#57c97a" font-size="10.5">deterministic</text>
  <text x="336" y="106" text-anchor="middle" fill="#d6d4cc" font-size="10.5">classify · validate</text>
  <text x="336" y="124" text-anchor="middle" fill="#d6d4cc" font-size="10.5">resolve · relationships</text>
  <text x="336" y="142" text-anchor="middle" fill="#d6d4cc" font-size="10.5">review · gate</text>

  <!-- box 3: lore MCP server -->
  <rect x="470" y="26" width="188" height="150" rx="10" fill="#1b1a15" stroke="#3d3b34"/>
  <text x="564" y="54" text-anchor="middle" fill="#f5a623" font-size="13" font-weight="700">lore MCP server</text>
  <line x1="510" y1="62" x2="618" y2="62" stroke="#a8762a" stroke-width="1"/>
  <text x="564" y="84" text-anchor="middle" fill="#4ec9b0" font-size="10.5">read-only</text>
  <text x="564" y="102" text-anchor="middle" fill="#d6d4cc" font-size="10">get_artifact · get_related</text>
  <text x="564" y="118" text-anchor="middle" fill="#d6d4cc" font-size="10">search_artifacts</text>
  <text x="564" y="134" text-anchor="middle" fill="#d6d4cc" font-size="10">find_decisions</text>
  <text x="564" y="150" text-anchor="middle" fill="#d6d4cc" font-size="10">get_summary</text>

  <!-- box 4: your agent -->
  <rect x="698" y="26" width="188" height="150" rx="10" fill="#1b1a15" stroke="#3d3b34"/>
  <text x="792" y="54" text-anchor="middle" fill="#f5a623" font-size="13" font-weight="700">your agent</text>
  <line x1="748" y1="62" x2="836" y2="62" stroke="#a8762a" stroke-width="1"/>
  <text x="792" y="92" text-anchor="middle" fill="#d6d4cc" font-size="10.5">Claude Code · Cursor</text>
  <text x="792" y="112" text-anchor="middle" fill="#d6d4cc" font-size="10.5">Claude Desktop</text>
  <text x="792" y="134" text-anchor="middle" fill="#8f8d84" font-size="10.5">cites your decisions</text>

  <!-- arrows -->
  <line x1="206" y1="101" x2="240" y2="101" stroke="#f5a623" stroke-width="2" marker-end="url(#arrow)"/>
  <line x1="434" y1="101" x2="468" y2="101" stroke="#f5a623" stroke-width="2" marker-end="url(#arrow)"/>
  <line x1="662" y1="101" x2="696" y2="101" stroke="#f5a623" stroke-width="2" marker-end="url(#arrow)"/>

  <!-- caption -->
  <text x="450" y="206" text-anchor="middle" fill="#8f8d84" font-size="11">Markdown in your repo  ·  deterministic engine  ·  read-only MCP  ·  agents that know why</text>
</svg>
